<svg xmlns="http://www.w3.org/2000/svg" width="24" height="24" viewBox="0 0 30 24" fill="white" stroke="white"
     stroke-width="2" stroke-linecap="round" stroke-linejoin="round"
     class="icon icon-tabler icons-tabler-outline icon-tabler-bowl-spoon">
  <defs>
    <style>
      @keyframes stir {
        0% {
          transform: translate(0, 0) rotate(0deg);
        }
        50% {
          transform: translate(0, 6px) rotate(0deg);
          transform: translate(0, 6px) rotate(-90deg);
        }
        25% {
          transform: translate(12px, 6px) rotate(-90deg);
        }
        100% {
          transform: translate(12px, 6px) rotate(-90deg);
        }
      }
      .spoon {
        animation: stir 1s forwards;
        transform-origin: 8px 7px;
      }
    </style>
  </defs>
  <path stroke="none" d="M0 0h24v24H0z" fill="none"/>
  <path
    d="M4 11h16a1 1 0 0 1 1 1v.5c0 1.5 -2.517 5.573 -4 6.5v1a1 1 0 0 1 -1 1h-8a1 1 0 0 1 -1 -1v-1c-1.687 -1.054 -4 -5 -4 -6.5v-.5a1 1 0 0 1 1 -1z"/>
  <g class="spoon">
    <path d="M8 7c1.657 0 3 -.895 3 -2s-1.343 -2 -3 -2s-3 .895 -3 2s1.343 2 3 2"/>
    <path d="M11 5h9"/>
  </g>
</svg>
